<?xml version="1.0" encoding="utf-8"?>
<!-- Generator: Adobe Illustrator 19.0.1, SVG Export Plug-In . SVG Version: 6.00 Build 0)  -->
<svg version="1.1" id="Camada_1" xmlns="http://www.w3.org/2000/svg" xmlns:xlink="http://www.w3.org/1999/xlink" x="0px" y="0px"
	 viewBox="-294 387.1 21.9 21.9" style="enable-background:new -294 387.1 21.9 21.9;" xml:space="preserve">
<style type="text/css">
	.st0{fill:#ffffff;}
</style>
<g>
	<g id="shopping-cart_1_">
		<path class="st0" d="M-287.4,404.6c-1.2,0-2.2,1-2.2,2.2c0,1.2,1,2.2,2.2,2.2c1.2,0,2.2-1,2.2-2.2
			C-285.2,405.6-286.2,404.6-287.4,404.6z M-294,387.1v2.2h2.2l3.9,8.3l-1.5,2.6c-0.1,0.3-0.2,0.8-0.2,1.1c0,1.2,1,2.2,2.2,2.2h13.1
			v-2.2H-287c-0.1,0-0.2-0.1-0.2-0.2V401l1-1.9h8.1c0.9,0,1.5-0.4,1.9-1.1l3.9-7.1c0.2-0.2,0.2-0.3,0.2-0.5c0-0.7-0.4-1.1-1.1-1.1
			h-16.2l-1-2.2H-294z M-276.5,404.6c-1.2,0-2.2,1-2.2,2.2c0,1.2,1,2.2,2.2,2.2s2.2-1,2.2-2.2C-274.3,405.6-275.3,404.6-276.5,404.6
			z"/>
	</g>
</g>
</svg>
