<?xml version="1.0" encoding="utf-8"?>
<!-- Generator: Adobe Illustrator 22.0.1, SVG Export Plug-In . SVG Version: 6.00 Build 0)  -->
<svg version="1.1" id="Camada_1" xmlns="http://www.w3.org/2000/svg" xmlns:xlink="http://www.w3.org/1999/xlink" x="0px" y="0px"
	 viewBox="0 0 346.4 185.9" style="enable-background:new 0 0 346.4 185.9;" xml:space="preserve">
<style type="text/css">
	.st0{fill:#B0D7D8;}
	.st1{fill:#37405B;}
	.st2{fill:#E5E5E6;}
	.st3{fill:#87BEC6;}
	.st4{fill:#455073;}
	.st5{opacity:0.2;fill:#455073;}
	.st6{fill:#FFFFFF;}
	.st7{fill:#CFD1D2;}
	.st8{fill:#434244;}
</style>
<g>
	<g>
		<path class="st0" d="M167.8,14c0,3-2.4,5.5-5.5,5.5H96.8c-3,0-5.5-2.4-5.5-5.5l0,0c0-3,2.4-5.5,5.5-5.5h65.5
			C165.3,8.5,167.8,11,167.8,14L167.8,14z"/>
		<path class="st0" d="M140.5,24.9c0,3-2.4,5.5-5.5,5.5H69.5c-3,0-5.5-2.4-5.5-5.5l0,0c0-3,2.4-5.5,5.5-5.5H135
			C138,19.5,140.5,21.9,140.5,24.9L140.5,24.9z"/>
	</g>
	<g>
		<path class="st0" d="M343.7,126.2c0,3-2.4,5.5-5.5,5.5h-65.5c-3,0-5.5-2.4-5.5-5.5l0,0c0-3,2.4-5.5,5.5-5.5h65.5
			C341.3,120.7,343.7,123.2,343.7,126.2L343.7,126.2z"/>
		<path class="st0" d="M319.6,119.1c0,3-2.4,5.5-5.5,5.5h-65.5c-3,0-5.5-2.4-5.5-5.5l0,0c0-3,2.4-5.5,5.5-5.5h65.5
			C317.2,113.6,319.6,116,319.6,119.1L319.6,119.1z"/>
		<path class="st0" d="M316.4,137.1c0,3-2.4,5.5-5.5,5.5h-65.5c-3,0-5.5-2.4-5.5-5.5l0,0c0-3,2.4-5.5,5.5-5.5H311
			C314,131.6,316.4,134.1,316.4,137.1L316.4,137.1z"/>
	</g>
	<g>
		<path class="st0" d="M102.2,123.8c0,3-2.4,5.5-5.5,5.5H31.2c-3,0-5.5-2.4-5.5-5.5l0,0c0-3,2.4-5.5,5.5-5.5h65.5
			C99.8,118.4,102.2,120.8,102.2,123.8L102.2,123.8z"/>
		<path class="st0" d="M91.4,114.8c0,3-2.4,5.5-5.5,5.5H20.4c-3,0-5.5-2.4-5.5-5.5l0,0c0-3,2.4-5.5,5.5-5.5h65.5
			C88.9,109.4,91.4,111.8,91.4,114.8L91.4,114.8z"/>
		<path class="st0" d="M79.1,133.7c0,3-2.4,5.5-5.5,5.5H8.2c-3,0-5.5-2.4-5.5-5.5l0,0c0-3,2.4-5.5,5.5-5.5h65.5
			C76.7,128.3,79.1,130.7,79.1,133.7L79.1,133.7z"/>
	</g>
	<g>
		<g>
			<path class="st1" d="M256,169.7H78.3c-3.1,0-5.6-2.8-5.6-6.3V48c0-3.5,2.5-6.3,5.6-6.3H256c3.1,0,5.6,2.8,5.6,6.3v115.4
				C261.6,166.9,259.1,169.7,256,169.7L256,169.7z"/>
			<path class="st2" d="M247.1,49.4H87.2c-2.2,0-4,2-4,4.5v103.8c0,2.4,1.7,4.4,3.9,4.4c-0.1,0-0.1,0,0.1,0h159.9c2.2,0,4-2,4-4.5
				V53.8C251,51.3,249.3,49.4,247.1,49.4z"/>
			<path class="st3" d="M84.5,158.8V55c0-2.5,1.8-4.5,4-4.5h159.9c0.7,0,1.4,0.2,2,0.6c-0.7-1.1-1.9-1.8-3.2-1.8H87.2
				c-2.2,0-4,2-4,4.5v103.8c0,1.6,0.8,3.1,2,3.8C84.7,160.7,84.5,159.8,84.5,158.8z"/>
			<path class="st4" d="M167.4,167.4h-116v1.9v3.6c0,2.5,2.7,4.5,6.1,4.5h109.9h109.9c3.3,0,6.1-2,6.1-4.5v-3.6v-1.9H167.4z"/>
			<path class="st5" d="M280.8,167.4v2.9c0,2.5-2.7,4.5-6.1,4.5H164.8H54.8c-1.2,0-2.3-0.3-3.2-0.7c0.7,1.9,3,3.3,5.8,3.3h109.9
				h109.9c3.3,0,6.1-2,6.1-4.5v-3.6v-1.9H280.8z"/>
			<rect x="155.6" y="171.3" class="st6" width="23.5" height="2.4"/>
		</g>
		<path class="st7" d="M247.1,49.4h-20c0,6.5,5.6,42.7-36.8,81.2c-21.6,19.7-46.2,27.9-56.3,31.5h113.1c2.2,0,4-2,4-4.5V53.8
			C251,51.3,249.3,49.4,247.1,49.4z"/>
	</g>
	<g>
		<polygon class="st8" points="225.7,86 218.4,85.1 212.2,75.7 204.7,61.8 207.1,76.3 207.4,85.3 212.4,91.3 205.5,92.3 174,71.7 
			188.8,84 183.7,87.8 192.3,87 199.6,93.1 205.2,98 201.7,99.1 203.9,109.2 209.2,122.8 196.1,126.6 205.2,134.8 201.6,128.6 
			213,124 207.7,107 212.9,104.1 218.3,111.1 221.5,106 232.1,107.7 238,115.4 248.4,116.8 239,113.3 234.6,104.6 224.1,101.7 
			222.2,104.7 233.2,86.9 242.5,69.7 		"/>
		<polygon class="st8" points="229.6,92.8 234.2,98.6 242,95.2 235.1,96.4 233.2,86.9 		"/>
		<polygon class="st8" points="224.1,77.2 225.6,69.6 230.9,66.6 222.4,67.9 220.5,75.6 212.2,75.7 215,79.8 		"/>
		<polygon class="st8" points="203,104.9 201.9,100.1 184.4,104.6 169.1,120.2 184.2,107.5 		"/>
	</g>
	<g>
		<polygon class="st0" points="288,79.2 278.6,79.2 273.6,12.7 293.1,12.7 		"/>
		<path class="st0" d="M290.2,91.4c0,3.8-3.1,6.8-6.9,6.8c-3.8,0-6.8-3.1-6.8-6.9c0-3.8,3.1-6.8,6.9-6.8
			C287.1,84.6,290.2,87.7,290.2,91.4z"/>
	</g>
</g>
</svg>
