<?xml version="1.0" encoding="utf-8"?>
<!-- Generator: Adobe Illustrator 19.0.1, SVG Export Plug-In . SVG Version: 6.00 Build 0)  -->
<svg version="1.1" id="Camada_1" xmlns="http://www.w3.org/2000/svg" xmlns:xlink="http://www.w3.org/1999/xlink" x="0px" y="0px"
	 width="693.2px" height="617.4px" viewBox="0 0 693.2 617.4" enable-background="new 0 0 693.2 617.4" xml:space="preserve">
<g>
	<path fill="#F9F9F9" d="M245.3,69h-223c-0.7-2.5-1-5.2-1-7.9c0-16.9,13.7-30.5,30.5-30.5h138.9v0c0-16.9,13.7-30.5,30.5-30.5h374.4
		c16.9,0,30.5,13.7,30.5,30.5c0,2.7-0.4,5.4-1,7.9h37.6c16.9,0,30.5,13.7,30.5,30.5c0,16.9-13.7,30.5-30.5,30.5H634v0H500.3
		c-16.9,0-30.5,13.7-30.5,30.5c0,3.8,0.7,7.4,1.9,10.7H536c14.7,0,26.6,11.9,26.6,26.6c0,3.1-0.5,6.1-1.5,8.9H422.8
		c-14.7,0-26.6,11.9-26.6,26.6s11.9,26.6,26.6,26.6h194.4c0.6,2.2,0.9,4.5,0.9,6.9c0,14.7-11.9,26.6-26.6,26.6H470.4v0
		c0,14.7-11.9,26.6-26.6,26.6H117.5c-14.7,0-26.6-11.9-26.6-26.6c0-2.4,0.3-4.7,0.9-6.9H59.1c-14.7,0-26.6-11.9-26.6-26.6
		c0-14.7,11.9-26.6,26.6-26.6h25h116.6c14.7,0,26.6-11.9,26.6-26.6c0-1.9-0.2-3.7-0.6-5.5H115.4c-16.9,0-30.5-13.7-30.5-30.5
		c0-3.6,0.6-7,1.7-10.2h158.7c16.9,0,30.5-13.7,30.5-30.5S262.2,69,245.3,69z"/>
</g>
<path fill="#FFFFFF" d="M302.1,551.1v-46.4h27.1v54l-9,5.9c0,0-9.7-10-18.1-12.5V551.1z"/>
<path fill="#CECECE" d="M319.8,567.9l-1.5-1.5c-0.1-0.1-9.4-9.6-17-11.9l-1.8-0.6v-51.8h32.3v58L319.8,567.9z M304.7,550.2
	c6.4,2.6,12.9,8.3,15.8,11.1l6.1-4v-50h-21.9V550.2z"/>
<g>
	<path fill="#FFFFFF" d="M213.2,517.4c0,0-22.1-5.7-27.6,16.1c-6.5,0.5-28.4,3.6-31.2,24.5c-1.7,12.4,3.2,21.1,7.9,26.4
		c0,0-23.7,8.7-11.1,32.3l410.5-1.4c0,0,9.1-21.5-14.5-33.6c1.6-3.6,13.9-34.3-15.1-53.1c-14-9.1-26.2-7.3-35.4-2.5l0,0
		c0,0-2.8-22.3-27.2-12.1c-19,7.9-5.9,29.4-5.9,29.4S448.4,545,445,556c-0.2,0.7-1.8,3.1,3.4,3.7c0,0-2.1,3.3-5,3.8
		s-14.7,41.6-77.1,25.4s-121.9-30.6-125.7-42.2C236.8,535.2,213.2,517.4,213.2,517.4"/>
</g>
<g>
	<path fill="#FFFFFF" d="M421.3,574.4c-5.8-18.8,17.1-18.2,17.1-18.2c12.1,1,8.5,12.4,8.5,12.4l-10,14.3c0,0-56.8,4.3-58.9,4.5
		C375.9,587.7,421.3,574.4,421.3,574.4"/>
</g>
<g>
	<path fill="#FFFFFF" d="M212.7,517.4c0,0-4.9-27.1,22.8-24.4c22.9,2.2,17.8,23.4,15.5,30.5c40.9-5.6,40,31.8,40,31.9
		c3.3-2.2,7.4-3.5,12.7-2.3c12.6,2.7,16.1,9.8,16.8,15.3c4.5-12.2,28.4-11.6,28.4-0.6c1.4-2.5,4-5,8.3-7.1
		c16.2-8.1,24.4,14.9,24.4,14.9c6.9-2.6,10.5,0.9,10.5,0.9s8-16.3,23.7-7.4c14.1,7.9-1.1,26.5-1.1,26.5L303.2,597l-96.5-40.8
		L212.7,517.4z"/>
</g>
<g>
	<path fill="#FFFFFF" d="M349.3,567.7c-4.9,8.7,3.9,18.3,3.9,18.3"/>
</g>
<g>
	<path fill="#FFFFFF" d="M291.4,555.4c-6.9,4.7-9.6,13.6-9.6,13.6"/>
</g>
<polygon fill="#FFFFFF" points="449.2,549.5 449.2,504.7 422.1,504.7 422.1,561.9 444.5,555.5 "/>
<path fill="#CECECE" d="M419.5,565.4v-63.2h32.3v48.3l-5.7,7.4L419.5,565.4z M424.7,507.3v51.1l18.3-5.2l3.6-4.6v-41.3H424.7z"/>
<path fill="#F2F2F2" d="M344.1,467.6V303.3c0-17.1,11.6-80.3,32-80.3c19.8,0,32,63.3,32,80.3v164.3H344.1z"/>
<path fill="#CECECE" d="M410.6,470.2h-69.2V303.3c0-9.6,3.2-29.9,8.4-47.3c7.2-23.6,16-35.6,26.1-35.6c9.9,0,18.6,12,25.9,35.6
	c5.4,17.7,8.7,38,8.7,47.3V470.2z M346.7,465h58.8V303.3c0-8.8-3.2-28.8-8.5-45.8c-6.2-20.3-13.9-31.9-20.9-31.9
	c-7.3,0-15,11.6-21.2,31.9c-5.6,18.5-8.2,38.3-8.2,45.8V465z"/>
<path fill="#FFFFFF" d="M561.6,614.8c0,0,13.5-32-35.1-39.8"/>
<path fill="#CECECE" d="M564,615.8l-4.8-2c0-0.1,4.1-10-1.2-19.4c-4.8-8.5-15.5-14.2-31.9-16.8l0.8-5.1c18.1,2.9,30.1,9.5,35.7,19.5
	C569.1,603.5,564.2,615.3,564,615.8z"/>
<g>
	<path fill="#CECECE" d="M549.3,582.6l-4.7-2.2c0-0.1,3.8-8.1,3.9-18.3c0.1-13.4-5.9-24.1-17.8-31.8c-11.9-7.7-23.9-8-35.4-0.9
		c-8.9,5.5-14.3,13.5-14.4,13.6l-4.3-2.9c0.2-0.4,6-8.9,15.8-15.1c9.3-5.8,23.9-10.3,41.1,0.9c16.9,11,20.3,25.9,20.2,36.4
		C553.6,573.6,549.5,582.3,549.3,582.6z"/>
</g>
<g>
	<path fill="#CECECE" d="M447,558l-5.1-0.8c1.7-11,12.1-15,17.8-16.4c-1.9-4.2-4.5-11.9-2.2-18.9c1.6-5,5.3-8.7,11-11
		c8.7-3.6,16-3.8,21.5-0.5c7.9,4.6,9.2,14.3,9.3,14.7l-5.2,0.7c0-0.1-1.1-7.6-6.8-10.9c-4.1-2.4-9.8-2.1-16.9,0.9
		c-4.3,1.8-6.9,4.3-8,7.8c-2.6,7.9,3.3,17.8,3.4,17.9l2.1,3.5l-4.1,0.4C463.8,545.4,448.7,547.1,447,558z"/>
</g>
<path fill="#FFFFFF" d="M446.9,568.1c0,0,3.6-11.5-8.5-12.4c0,0-22.9-0.6-17.1,18.2"/>
<path fill="#CECECE" d="M418.8,574.6c-1.8-5.9-1.3-10.8,1.6-14.6c5.5-7.2,17.6-7,18.1-7l0.1,0c4.4,0.4,7.6,2,9.6,4.8
	c3.1,4.7,1.3,10.7,1.2,11l-5-1.5c0,0,1.2-4-0.6-6.5c-1-1.5-2.9-2.3-5.6-2.5c-0.8,0-10,0-13.8,4.9c-1.8,2.4-2,5.7-0.7,9.9
	L418.8,574.6z"/>
<g>
	<path fill="#CECECE" d="M496.4,602.1c-0.1-0.2-9-15.7-23.5-17.6c-9-1.2-18.5,3.1-28.2,12.9l-0.8,0.8h-12.8V593h10.6
		c10.6-10.5,21.3-15.1,31.8-13.6c17,2.3,26.9,19.5,27.3,20.2L496.4,602.1z"/>
</g>
<path fill="#FFFFFF" d="M415.1,594.9c0,0,15.2-18.6,1.1-26.5c-15.7-8.8-23.7,7.4-23.7,7.4s-3.6-3.5-10.5-0.9c0,0-8.4-23.4-24.4-14.9
	c-17,9-4.4,25.4-4.4,25.4"/>
<path fill="#CECECE" d="M417.1,596.6l-4-3.3c2.1-2.6,7.5-10.8,6.3-16.9c-0.5-2.4-1.9-4.3-4.5-5.8c-4-2.2-7.7-2.8-11-1.8
	c-5.8,1.8-9,8.1-9.1,8.1l-1.7,3.4l-2.5-2.6c-0.3-0.2-2.9-2.2-7.8-0.4l-2.5,0.9l-0.9-2.5c0-0.1-4.2-11.5-11.7-14.4
	c-2.8-1.1-5.8-0.8-9,0.9c-4.1,2.2-6.5,5-7.3,8.3c-1.4,6.4,3.7,13.2,3.7,13.3l-4.1,3.2c-0.3-0.4-6.6-8.7-4.7-17.5
	c1.1-4.9,4.4-8.9,9.9-11.8c4.6-2.4,9.1-2.8,13.3-1.1c7.4,2.9,11.9,11.1,13.8,15.2c3.5-0.8,6.3-0.2,8.1,0.5c1.8-2.6,5.4-6.7,10.7-8.4
	c4.8-1.5,9.9-0.7,15.1,2.2c3.9,2.2,6.3,5.4,7.1,9.3C426.3,585.1,417.5,596.1,417.1,596.6z"/>
<path fill="#FFFFFF" d="M341.1,586.4c0,0-12.8,1-15.1,14.4"/>
<path fill="#CECECE" d="M328.6,601.3l-5.1-0.9c2.1-12.2,12.3-16.2,17.4-16.6l0.4,5.2l-0.2-2.6l0.2,2.6
	C340.9,589,330.6,590.1,328.6,601.3z"/>
<g>
	<path fill="#CECECE" d="M318,575.4c-1.2-6,0.6-11.1,5-14.5c5.6-4.3,15.3-5,22-1.7c4.3,2.1,6.7,5.6,6.7,9.7h-5.2
		c0-2.6-2.1-4.1-3.8-5c-5-2.5-12.4-2-16.5,1.2c-2.8,2.1-3.8,5.3-3.1,9.3L318,575.4z"/>
</g>
<path fill="#CECECE" d="M322.7,571.6l-4.8-2l2.4,1l-2.4-1c0.1-0.1,1.3-3.4-0.6-6.9c-1.9-3.6-6.7-6.3-13.7-7.8
	c-13.8-2.9-19,13.5-19.2,14.1l-5-1.5c0.1-0.2,1.7-5.4,5.4-10.1c5.3-6.6,12.1-9.2,19.9-7.6c8.8,1.9,14.6,5.4,17.3,10.5
	C324.9,566.1,322.8,571.4,322.7,571.6z"/>
<path fill="#CECECE" d="M253,526.2l-4.8-2l2.4,1l-2.4-1c0.1-0.1,5.8-13.9,0.7-22.3c-2.3-3.9-6.8-6.2-13.2-6.8
	c-7.1-0.7-12.3,0.8-15.5,4.4c-6,6.6-3.7,18.4-3.7,18.5l-5.1,1c-0.1-0.6-2.8-14.5,4.9-23c4.4-4.9,11.1-6.9,19.9-6.1
	c8.2,0.8,14,3.9,17.2,9.3C259.8,509.9,253.3,525.5,253,526.2z"/>
<path fill="#FFFFFF" d="M291.4,554.8c0,0,1.1-38.1-40.9-31.8"/>
<path fill="#CECECE" d="M294,554.9l-5.2-0.1l2.6,0.1l-2.6-0.1c0-0.1,0.2-14.7-9.5-23.3c-6.5-5.7-16-7.7-28.3-5.8l-0.8-5.1
	c13.9-2.1,24.9,0.3,32.6,7.1C294.4,537.8,294.1,554.2,294,554.9z"/>
<g>
	<path fill="#CECECE" d="M187.8,534.7l-5.1-1.1c1.6-7.6,5.2-13.1,10.7-16.5c9.1-5.6,19.9-2.9,20.4-2.8l-1.3,5
		c-0.1,0-9.2-2.3-16.4,2.2C191.9,524.2,189.1,528.6,187.8,534.7z"/>
</g>
<path fill="#FFFFFF" d="M187.4,532.9c0,0-29.7,0-33.1,24.6c-3.1,22.3,15.1,32.5,15.1,32.5"/>
<path fill="#CECECE" d="M168.1,592.3c-0.2-0.1-5-2.9-9.5-8.6c-4.1-5.3-8.6-14.2-6.9-26.6c1.5-11,8.2-19.2,19.4-23.6
	c8.2-3.2,15.9-3.3,16.2-3.3l0,5.2l0-2.6l0,2.6c-0.1,0-7.2,0.1-14.5,3c-9.4,3.7-14.8,10.3-16,19.4c-2.8,20.3,13.6,29.8,13.8,29.9
	L168.1,592.3z"/>
<path fill="#FFFFFF" d="M162.2,583.9c0,0-23.7,8.6-11.1,32.3"/>
<path fill="#CECECE" d="M148.8,617.4c-4.2-7.9-5.1-15.2-2.6-21.6c3.9-10.1,14.7-14.2,15.1-14.3l1.8,4.9c-0.1,0-9.1,3.4-12.1,11.4
	c-1.9,5-1.1,10.8,2.4,17.3L148.8,617.4z"/>
<g>
	<path fill="#CECECE" d="M300.3,604.6c-0.1-0.1-10.4-5.1-18.5-1.4l-2.5,1.1l-1-2.5c-0.2-0.5-4.9-11.6-18-7.7l-2.3,0.7l-0.8-2.3
		c-0.2-0.6-5.5-13.7-21.8-12.4c-7.6,0.6-12.9,3.1-15.8,7.5c-2,3.1-2.1,6-2.1,6h-5.2c0-0.2,0-4.5,3-8.9c2.6-4,8.2-8.9,19.7-9.8
		c10.6-0.9,17.4,3.5,21.2,7.2c2.4,2.3,3.9,4.8,4.9,6.4c8.1-1.7,13.5,1.2,16.8,4c2,1.7,3.4,3.6,4.2,5.1c9.8-3,20.2,2.1,20.6,2.3
		L300.3,604.6z"/>
</g>
<path fill="#524C48" d="M410.5,475H341V367.4c0-7.2,2-24.7,7.3-40.8c6.6-20.2,16.1-30.8,27.5-30.8c10.8,0,20.1,10.6,26.9,30.8
	c5.4,15.9,7.8,33.4,7.8,40.9V475z M346.2,469.8h59.1V367.4c0-16.5-10.5-66.5-29.5-66.5c-20.7,0-29.5,50.4-29.5,66.5V469.8z"/>
<path fill="#524C48" d="M410.5,475H341V367.4c0-7.2,2-24.7,7.3-40.8c6.6-20.2,16.1-30.8,27.5-30.8c10.8,0,20.1,10.6,26.9,30.8
	c5.4,15.9,7.8,33.4,7.8,40.9V475z M346.2,469.8h59.1V367.4c0-16.5-10.5-66.5-29.5-66.5c-20.7,0-29.5,50.4-29.5,66.5V469.8z"/>
<path fill="#FFFFFF" d="M408,488V354.5c0-14.7,10-69.3,27.6-69.3c17,0,27.6,54.6,27.6,69.3V488H408z"/>
<path fill="#CECECE" d="M465.8,490.6h-60.4V354.5c0-8.3,2.7-25.9,7.3-40.9c6.2-20.6,13.9-31,22.9-31c8.7,0,16.3,10.4,22.7,31
	c4.7,15.3,7.5,32.8,7.5,40.9V490.6z M410.6,485.4h50V354.5c0-7.6-2.8-24.8-7.3-39.4c-5.3-17.3-11.8-27.3-17.7-27.3
	c-6.1,0-12.7,9.9-17.9,27.3c-4.8,15.9-7.1,32.9-7.1,39.4V485.4z"/>
<path fill="#FFFFFF" d="M343.6,472.4V367.4c0-14.7,8.3-69.1,32.1-69.1c22.4,0,32.1,54.4,32.1,69.1v105.1H343.6z"/>
<path fill="#CECECE" d="M410.5,475H341V367.4c0-7.2,2-24.7,7.3-40.8c6.6-20.2,16.1-30.8,27.5-30.8c10.8,0,20.1,10.6,26.9,30.8
	c5.4,15.9,7.8,33.4,7.8,40.9V475z M346.2,469.8h59.1V367.4c0-16.5-10.5-66.5-29.5-66.5c-20.7,0-29.5,50.4-29.5,66.5V469.8z"/>
<path fill="#CECECE" d="M369.3,454.6v-21.3c0-3,1.7-14,6.5-14c4.5,0,6.5,11,6.5,14v21.3H369.3z"/>
<path fill="#CECECE" d="M376,308.2c5.3,0,10.3-0.6,14.5-1.8c-4.1-6.8-8.9-11.1-14.5-11.1c-5.9,0-10.9,4.3-15.1,11
	C365.4,307.5,370.5,308.2,376,308.2z"/>
<path fill="#FFFFFF" d="M288.1,488V354.5c0-14.7,10-69.3,27.6-69.3c17,0,27.6,54.6,27.6,69.3V488H288.1z"/>
<path fill="#CECECE" d="M345.8,490.6h-60.4V354.5c0-8.3,2.7-25.9,7.3-40.9c6.2-20.6,13.9-31,22.9-31c8.7,0,16.3,10.4,22.7,31
	c4.7,15.3,7.5,32.8,7.5,40.9V490.6z M290.7,485.4h50V354.5c0-7.6-2.8-24.8-7.3-39.4c-5.3-17.3-11.8-27.3-17.7-27.3
	c-6.1,0-12.7,9.9-17.9,27.3c-4.8,15.9-7.1,32.9-7.1,39.4V485.4z"/>
<circle fill="#F2F2F2" cx="375.8" cy="362.1" r="14.7"/>
<path fill="#CECECE" d="M375.8,379.4c-9.6,0-17.3-7.8-17.3-17.3c0-9.6,7.8-17.3,17.3-17.3c9.6,0,17.3,7.8,17.3,17.3
	C393.1,371.7,385.3,379.4,375.8,379.4z M375.8,350c-6.7,0-12.1,5.4-12.1,12.1s5.4,12.1,12.1,12.1c6.7,0,12.1-5.4,12.1-12.1
	S382.5,350,375.8,350z"/>
<path fill="#F2F2F2" d="M343.6,373.4c0,0-44.6,21.6-44.6,49.9v41.8h44.6V373.4z"/>
<path fill="#CECECE" d="M346.2,467.7h-49.8v-44.4c0-29.6,44.2-51.3,46-52.2l3.7-1.8V467.7z M301.7,462.5H341v-84.8
	c-10.5,5.8-39.4,23.9-39.4,45.5V462.5z"/>
<path fill="#F2F2F2" d="M407.9,373.4c0,0,44.6,21.6,44.6,49.9v41.8h-44.6V373.4z"/>
<path fill="#CECECE" d="M455.1,467.7h-49.8v-98.4l3.7,1.8c1.9,0.9,46,22.6,46,52.2V467.7z M410.5,462.5h39.4v-39.2
	c0-21.7-28.9-39.7-39.4-45.5V462.5z"/>
<path fill="#F2F2F2" d="M349.3,472.4v6.2c0,2.9,2,5.3,4.4,5.3h44.1c2.4,0,4.4-2.4,4.4-5.3v-6.2H349.3z"/>
<path fill="#CECECE" d="M397.8,486.5h-44.1c-3.9,0-7-3.5-7-7.9v-8.8h58.2v8.8C404.9,483,401.7,486.5,397.8,486.5z M351.9,475v3.6
	c0,1.6,1,2.7,1.8,2.7h44.1c0.9,0,1.8-1.1,1.8-2.7V475H351.9z"/>
<path fill="#CECECE" d="M357.1,483.9v4.3c0,2.1,1.4,3.7,3.1,3.7h31.1c1.7,0,3.1-1.7,3.1-3.7v-4.3H357.1z"/>
<path fill="#CECECE" d="M293,488v5.3c0,2.5,1.7,4.5,3.8,4.5h37.7c2.1,0,3.8-2,3.8-4.5V488H293z"/>
<path fill="#CECECE" d="M328.9,507.3h-26.5c-2.9,0-5.3-2.6-5.3-5.8v-6.3h37.1v6.3C334.2,504.7,331.8,507.3,328.9,507.3z
	 M302.5,502.1h26.3c0.1-0.1,0.2-0.3,0.2-0.6v-1.1h-26.7v1.1C302.3,501.8,302.4,502,302.5,502.1z"/>
<path fill="#CECECE" d="M413,488v5.3c0,2.5,1.7,4.5,3.8,4.5h37.7c2.1,0,3.8-2,3.8-4.5V488H413z"/>
<path fill="#CECECE" d="M448.9,507.3h-26.5c-2.9,0-5.3-2.6-5.3-5.8v-6.3h37.1v6.3C454.1,504.7,451.8,507.3,448.9,507.3z
	 M422.4,502.1h26.3c0.1-0.1,0.2-0.3,0.2-0.6v-1.1h-26.7v1.1C422.3,501.8,422.4,502,422.4,502.1z"/>
<g>
	<path fill="#CECECE" d="M445.1,202h-21.4v-5.2h17.8c-1.3-4.5-2.9-12.3-0.5-19.2c3.1-9.1,15.1-15.4,27.8-14.7
		c11.2,0.6,19.7,6.6,23.3,16.2c2.1-1.5,5.2-2.9,8.8-2.8c4.8,0.1,11.1,2.8,13.9,7.8c1.1,2,2,5,0.9,8.9h30.6v5.2h-39.1l2.3-3.9
		c1.7-2.9,1.9-5.5,0.7-7.6c-1.7-3.1-6.2-5-9.5-5.1c-4.4-0.1-8,3.9-8,3.9l-3.4,3.9l-1.1-5c-3-13.7-14.8-15.8-19.7-16.1
		c-10.3-0.6-20.2,4.3-22.6,11.2c-2.9,8.4,1.6,19,1.7,19.1l1.6,3.6L445.1,202z"/>
</g>
<g>
	<rect x="540.5" y="184.8" fill="#CECECE" width="11.5" height="5.2"/>
</g>
<g>
	<path fill="#CECECE" d="M162.8,324.4h-25.4l1.6-3.6c0-0.1,4.6-10.8,1.7-19.1c-2.4-6.9-12.3-11.8-22.6-11.2
		c-4.9,0.3-16.7,2.4-19.7,16.1l-1.1,5l-3.4-3.9c0,0-3.6-4-8-3.9c-3.3,0.1-7.8,2-9.5,5.1c-1.2,2.2-1,4.7,0.7,7.6l2.3,3.9H40.4v-5.2
		H71c-1.1-3.8-0.2-6.8,0.9-8.9c2.8-4.9,9.1-7.6,13.9-7.8c3.6-0.1,6.6,1.4,8.8,2.8c3.6-9.6,12.1-15.5,23.3-16.2
		c12.7-0.7,24.6,5.6,27.8,14.7c2.4,7,0.8,14.8-0.5,19.2h17.8V324.4z"/>
</g>
<g>
	<rect x="34.6" y="307.1" fill="#CECECE" width="11.5" height="5.2"/>
</g>
<circle fill="#F2F2F2" cx="102.7" cy="555.5" r="20.2"/>
<path fill="#CECECE" d="M102.7,578.2C90.2,578.2,80,568,80,555.5c0-12.5,10.2-22.8,22.8-22.8c12.5,0,22.8,10.2,22.8,22.8
	C125.5,568,115.3,578.2,102.7,578.2z M102.7,537.9c-9.7,0-17.6,7.9-17.6,17.6c0,9.7,7.9,17.6,17.6,17.6c9.7,0,17.6-7.9,17.6-17.6
	C120.3,545.8,112.4,537.9,102.7,537.9z"/>
<rect x="100.1" y="557" fill="#CECECE" width="5.2" height="56.7"/>
<rect x="106.3" y="578.3" transform="matrix(0.7071 0.7071 -0.7071 0.7071 446.959 94.9434)" fill="#CECECE" width="5.2" height="17.4"/>
<rect x="93.1" y="562.8" transform="matrix(0.7071 0.7071 -0.7071 0.7071 428.749 95.8033)" fill="#CECECE" width="11.3" height="5.2"/>
<circle fill="#F2F2F2" cx="609.5" cy="555.5" r="20.2"/>
<path fill="#CECECE" d="M609.5,578.2c-12.5,0-22.8-10.2-22.8-22.8c0-12.5,10.2-22.8,22.8-22.8c12.5,0,22.8,10.2,22.8,22.8
	C632.2,568,622,578.2,609.5,578.2z M609.5,537.9c-9.7,0-17.6,7.9-17.6,17.6c0,9.7,7.9,17.6,17.6,17.6c9.7,0,17.6-7.9,17.6-17.6
	C627,545.8,619.2,537.9,609.5,537.9z"/>
<g>
	<rect x="606.9" y="557" fill="#CECECE" width="5.2" height="56.7"/>
</g>
<g>
	
		<rect x="594.6" y="584.4" transform="matrix(0.7071 0.7071 -0.7071 0.7071 591.7886 -254.6769)" fill="#CECECE" width="17.4" height="5.2"/>
</g>
<g>
	
		<rect x="610.9" y="559.8" transform="matrix(0.7071 0.7071 -0.7071 0.7071 579.5125 -268.1613)" fill="#CECECE" width="5.2" height="11.3"/>
</g>
<g>
	<rect x="41.4" y="537.6" fill="#CECECE" width="33.3" height="5.2"/>
</g>
<g>
	<rect x="0" y="527.4" fill="#CECECE" width="33.3" height="5.2"/>
</g>
<g>
	<rect x="28.2" y="514.3" fill="#CECECE" width="13.1" height="5.2"/>
</g>
<g>
	<rect x="586.7" y="506.8" fill="#CECECE" width="33.3" height="5.2"/>
</g>
<g>
	<rect x="545.3" y="496.6" fill="#CECECE" width="33.3" height="5.2"/>
</g>
<g>
	<rect x="573.6" y="483.5" fill="#CECECE" width="13.1" height="5.2"/>
</g>
<path fill="#F2F2F2" d="M200.7,472.4c0,6.1-5,11.1-11.1,11.1h-83.8c-6.1,0-11.1-5-11.1-11.1v-78.7c0-6.1,5-11.1,11.1-11.1h83.8
	c6.1,0,11.1,5,11.1,11.1V472.4z"/>
<path fill="#CECECE" d="M189.6,486.2h-83.8c-7.6,0-13.7-6.1-13.7-13.7v-78.7c0-7.6,6.1-13.7,13.7-13.7h83.8
	c7.6,0,13.7,6.1,13.7,13.7v78.7C203.3,480,197.2,486.2,189.6,486.2z M105.8,385.3c-4.7,0-8.5,3.8-8.5,8.5v78.7
	c0,4.7,3.8,8.5,8.5,8.5h83.8c4.7,0,8.5-3.8,8.5-8.5v-78.7c0-4.7-3.8-8.5-8.5-8.5H105.8z"/>
<path fill="#F2F2F2" d="M94.7,403.1v-9.3c0-6.1,5-11.1,11.1-11.1h83.8c6.1,0,11.1,5,11.1,11.1v9.3H94.7z"/>
<path fill="#CECECE" d="M203.3,405.7H92.1v-11.9c0-7.6,6.1-13.7,13.7-13.7h83.8c7.6,0,13.7,6.1,13.7,13.7V405.7z M97.3,400.5h100.8
	v-6.7c0-4.7-3.8-8.5-8.5-8.5h-83.8c-4.7,0-8.5,3.8-8.5,8.5V400.5z"/>
<path fill="#FFFFFF" d="M229.7,458.1c0,6.4-5.2,11.6-11.6,11.6h-87.3c-6.4,0-11.6-5.2-11.6-11.6v-81.9c0-6.4,5.2-11.6,11.6-11.6
	h87.3c6.4,0,11.6,5.2,11.6,11.6V458.1z"/>
<path fill="#CECECE" d="M218.1,472.3h-87.3c-7.8,0-14.2-6.4-14.2-14.2v-81.9c0-7.8,6.4-14.2,14.2-14.2h87.3
	c7.8,0,14.2,6.4,14.2,14.2v81.9C232.3,465.9,225.9,472.3,218.1,472.3z M130.8,367.2c-4.9,0-9,4-9,9v81.9c0,4.9,4,9,9,9h87.3
	c4.9,0,9-4,9-9v-81.9c0-4.9-4-9-9-9H130.8z"/>
<path fill="#F2F2F2" d="M119.3,385.9v-9.7c0-6.4,5.2-11.6,11.6-11.6h87.3c6.4,0,11.6,5.2,11.6,11.6v9.7H119.3z"/>
<path fill="#CECECE" d="M232.3,388.5H116.7v-12.3c0-7.8,6.4-14.2,14.2-14.2h87.3c7.8,0,14.2,6.4,14.2,14.2V388.5z M121.9,383.3
	h105.2v-7.1c0-4.9-4-9-9-9h-87.3c-4.9,0-9,4-9,9V383.3z"/>
<rect x="134.1" y="403.6" fill="#CECECE" width="80.8" height="5.2"/>
<rect x="130.9" y="373.9" fill="#CECECE" width="6.2" height="5.2"/>
<rect x="139.7" y="373.9" fill="#CECECE" width="6.2" height="5.2"/>
<rect x="134.1" y="418.5" fill="#CECECE" width="80.8" height="5.2"/>
<rect x="134.1" y="433.4" fill="#CECECE" width="80.8" height="5.2"/>
<rect x="174.5" y="447.1" fill="#CECECE" width="40.4" height="5.2"/>
<rect x="502.5" y="386.6" fill="#F2F2F2" width="121.7" height="53"/>
<path fill="#CECECE" d="M626.8,442.1H499.9V384h126.9V442.1z M505.1,436.9h116.5v-47.8H505.1V436.9z"/>
<g>
	<rect x="512.2" y="410.7" fill="#CECECE" width="23.6" height="5.2"/>
</g>
<g>
	<rect x="592.2" y="410.7" fill="#CECECE" width="23.6" height="5.2"/>
</g>
<circle fill="#FFFFFF" cx="563.4" cy="413.1" r="18.1"/>
<path fill="#CECECE" d="M563.4,432.5c-10.7,0-19.5-8.7-19.5-19.5c0-10.7,8.7-19.5,19.5-19.5s19.5,8.7,19.5,19.5
	C582.8,423.8,574.1,432.5,563.4,432.5z M563.4,396.4c-9.2,0-16.7,7.5-16.7,16.7c0,9.2,7.5,16.7,16.7,16.7c9.2,0,16.7-7.5,16.7-16.7
	C580,403.9,572.6,396.4,563.4,396.4z"/>
<g>
	<g>
		<path fill="#CECECE" d="M569.2,416.9c0,1.6-0.4,2.8-1.3,3.7c-0.9,0.9-2.1,1.5-3.7,1.7v3.1h-1.7v-3c-1.9-0.1-3.5-0.5-5-1.2v-3.6
			c0.8,0.5,1.6,0.8,2.5,1.1c0.9,0.3,1.7,0.5,2.5,0.5v-5l-0.5-0.2c-1.7-0.8-2.8-1.6-3.5-2.5c-0.7-0.8-1-1.9-1-3.2
			c0-1.5,0.4-2.7,1.3-3.6c0.9-0.9,2.1-1.4,3.7-1.6v-2.4h1.7v2.3c1.5,0.1,3,0.5,4.5,1.3l-1.2,3.1c-1.3-0.6-2.4-1-3.4-1v4.7
			c0.3,0.1,0.5,0.2,0.5,0.2c1.2,0.5,2.2,1.1,2.8,1.6c0.6,0.5,1.1,1.1,1.4,1.7C569.1,415.2,569.2,416,569.2,416.9z M560.9,408.3
			c0,0.5,0.1,0.9,0.4,1.2c0.2,0.3,0.6,0.6,1.2,0.8v-3.9C561.5,406.6,560.9,407.2,560.9,408.3z M565.8,417c0-0.4-0.1-0.8-0.3-1.1
			c-0.2-0.3-0.6-0.6-1.3-0.9v4.1C565.3,418.9,565.8,418.2,565.8,417z"/>
	</g>
</g>
<path fill="#FFFFFF" d="M486.2,278.1c7.6-17.3,27.8-25.2,45.2-17.6s25.2,27.8,17.6,45.2c-7.6,17.3-27.8,25.2-45.2,17.6
	c-1-0.4-1.9-0.9-2.8-1.4l-15.4,5.4l5-12.1l0,0C480.7,305.4,480.3,291.5,486.2,278.1z"/>
<path fill="#CECECE" d="M481,331.6l6.6-15.9c-8.9-9.7-10.3-23.7-3.7-38.7c5.9-13.4,19.2-22.1,33.8-22.1c5.1,0,10.1,1,14.8,3.1
	c9,4,16,11.2,19.5,20.4c3.6,9.2,3.4,19.2-0.6,28.2c-5.9,13.4-19.2,22.1-33.8,22.1c0,0,0,0,0,0c-5.1,0-10.1-1-14.8-3.1
	c-0.7-0.3-1.3-0.6-2-1L481,331.6z M501.3,319l1,0.6c0.9,0.5,1.8,0.9,2.6,1.3c4.1,1.8,8.3,2.7,12.7,2.7c0,0,0,0,0,0
	c12.6,0,24-7.4,29-19c3.4-7.8,3.6-16.4,0.5-24.3c-3.1-7.9-9-14.1-16.8-17.5c-4.1-1.8-8.3-2.7-12.7-2.7c-12.6,0-24,7.4-29,19
	c-3.5,8-7.6,23,3.9,34.1l1.3,1.2l-3.5,8.4L501.3,319z"/>
<g>
	<path fill="#CECECE" d="M513.9,295.8h-12.1v-6.8h12.1v-12.2h6.8v12.2h12.1v6.8h-12.1v12h-6.8V295.8z"/>
</g>
<path fill="#F2F2F2" d="M280.9,216.2c-12.5-28.6-45.8-41.6-74.4-29c-28.6,12.5-41.6,45.8-29,74.4c12.5,28.6,45.8,41.6,74.4,29
	c1.6-0.7,3.2-1.5,4.7-2.3l25.4,8.8l-8.3-19.9l0,0C290.1,261.3,290.7,238.5,280.9,216.2z"/>
<path fill="#CECECE" d="M286.6,301.5l-29.8-10.4c-1.3,0.7-2.6,1.3-3.9,1.9c-7.5,3.3-15.5,5-23.7,5c-23.5,0-44.7-13.9-54.1-35.4
	c-6.3-14.4-6.7-30.5-0.9-45.2c5.7-14.7,16.9-26.3,31.3-32.6c7.5-3.3,15.5-5,23.7-5c23.5,0,44.7,13.9,54.1,35.4
	c10.7,24.4,8.3,47.1-6.6,62.6L286.6,301.5z M229.2,185c-7.5,0-14.7,1.5-21.6,4.6c-13.2,5.8-23.3,16.3-28.5,29.8
	c-5.2,13.4-4.9,28,0.9,41.2c8.6,19.6,28,32.2,49.4,32.2c7.5,0,14.7-1.5,21.6-4.6c1.5-0.6,2.9-1.4,4.5-2.2l1-0.6l21,7.3l-6.7-16.2
	l1.3-1.2c14.4-13.9,16.8-35.1,6.7-58.1C270,197.7,250.6,185,229.2,185z"/>
<circle fill="#FFFFFF" cx="230.3" cy="239.4" r="41.1"/>
<path fill="#CECECE" d="M230.3,283.1c-24.1,0-43.7-19.6-43.7-43.7c0-24.1,19.6-43.7,43.7-43.7s43.7,19.6,43.7,43.7
	C273.9,263.5,254.3,283.1,230.3,283.1z M230.3,200.9c-21.2,0-38.5,17.3-38.5,38.5c0,21.2,17.3,38.5,38.5,38.5s38.5-17.3,38.5-38.5
	C268.7,218.2,251.5,200.9,230.3,200.9z"/>
<circle fill="#F2F2F2" cx="230.3" cy="239.4" r="22.7"/>
<path fill="#CECECE" d="M230.3,264.7c-14,0-25.3-11.3-25.3-25.3c0-14,11.3-25.3,25.3-25.3s25.3,11.3,25.3,25.3
	C255.6,253.3,244.2,264.7,230.3,264.7z M230.3,219.3c-11.1,0-20.1,9-20.1,20.1c0,11.1,9,20.1,20.1,20.1c11.1,0,20.1-9,20.1-20.1
	C250.4,228.3,241.3,219.3,230.3,219.3z"/>
<g>
	<polygon fill="#CECECE" points="231.1,243.3 228.6,238.8 312.4,190.8 312.4,173.1 317.6,173.1 317.6,193.8 	"/>
</g>
<g>
	
		<rect x="314.6" y="192.3" transform="matrix(0.9666 0.2564 -0.2564 0.9666 60.8379 -76.7668)" fill="#CECECE" width="20.3" height="5.2"/>
</g>
<g>
	<polygon fill="#CECECE" points="240.8,247.8 227.6,243.2 228.4,228.1 233.6,228.3 233,239.6 242.5,242.9 	"/>
</g>
<g>
	<polygon fill="#CECECE" points="299,214.5 285.8,209.9 286.6,194.8 291.8,195 291.2,206.3 300.7,209.6 	"/>
</g>
<g>
	<polygon fill="#CECECE" points="311.8,205.9 298.5,201.3 299.3,186.2 304.5,186.4 303.9,197.7 313.5,201 	"/>
</g>
</svg>
