<?xml version="1.0" encoding="utf-8"?>
<!-- Generator: Adobe Illustrator 19.0.1, SVG Export Plug-In . SVG Version: 6.00 Build 0)  -->
<svg version="1.1" id="Camada_1" xmlns="http://www.w3.org/2000/svg" xmlns:xlink="http://www.w3.org/1999/xlink" x="0px" y="0px"
	 width="14.6px" height="14.7px" viewBox="0 0 14.6 14.7" enable-background="new 0 0 14.6 14.7" xml:space="preserve">
<g>
	<path fill="#131313" d="M14.6,10.7c-0.1-0.1-0.3-0.1-0.4,0l-3,3V0.3C11.2,0.1,11,0,10.9,0c-0.2,0-0.3,0.1-0.3,0.3v13.4l-3-3
		c-0.1-0.1-0.3-0.1-0.4,0c-0.1,0.1-0.1,0.3,0,0.4l3.5,3.5c0.1,0.1,0.1,0.1,0.2,0.1s0.2,0,0.2-0.1l3.5-3.5
		C14.7,11.1,14.7,10.9,14.6,10.7z"/>
	<path fill="#131313" d="M0.3,0.6h9c0.2,0,0.3-0.1,0.3-0.3S9.5,0,9.3,0h-9C0.1,0,0,0.1,0,0.3S0.1,0.6,0.3,0.6z"/>
	<path fill="#131313" d="M0.3,4.1h9c0.2,0,0.3-0.1,0.3-0.3c0-0.2-0.1-0.3-0.3-0.3h-9C0.1,3.5,0,3.6,0,3.8C0,4,0.1,4.1,0.3,4.1z"/>
	<path fill="#131313" d="M0.3,7.6h9c0.2,0,0.3-0.1,0.3-0.3C9.6,7.2,9.5,7,9.3,7h-9C0.1,7,0,7.2,0,7.3C0,7.5,0.1,7.6,0.3,7.6z"/>
	<path fill="#131313" d="M6.2,10.5H0.3c-0.2,0-0.3,0.1-0.3,0.3c0,0.2,0.1,0.3,0.3,0.3h5.9c0.2,0,0.3-0.1,0.3-0.3
		C6.5,10.7,6.3,10.5,6.2,10.5z"/>
	<path fill="#131313" d="M6.2,14H0.3C0.1,14,0,14.2,0,14.3c0,0.2,0.1,0.3,0.3,0.3h5.9c0.2,0,0.3-0.1,0.3-0.3C6.5,14.2,6.3,14,6.2,14
		z"/>
</g>
</svg>
